<svg xmlns="http://www.w3.org/2000/svg" viewBox="0 0 32 32">
  <rect width="32" height="32" rx="7" fill="#2563eb" stroke="rgba(255,255,255,0.25)" stroke-width="1.5"/>
  <!-- book shape -->
  <path d="M7 7.5C7 6.67 7.67 6 8.5 6H15v20H8.5C7.67 26 7 25.33 7 24.5V7.5z" fill="#93c5fd"/>
  <path d="M17 6h6.5C24.33 6 25 6.67 25 7.5V24.5c0 .83-.67 1.5-1.5 1.5H17V6z" fill="#bfdbfe"/>
  <!-- spine -->
  <rect x="15" y="6" width="2" height="20" fill="#1d4ed8"/>
  <!-- text lines left -->
  <rect x="9" y="10" width="4" height="1.2" rx=".6" fill="#2563eb"/>
  <rect x="9" y="13" width="3" height="1.2" rx=".6" fill="#2563eb"/>
  <!-- text lines right -->
  <rect x="19" y="10" width="4" height="1.2" rx=".6" fill="#3b82f6"/>
  <rect x="19" y="13" width="3" height="1.2" rx=".6" fill="#3b82f6"/>
  <!-- checkmark -->
  <circle cx="22" cy="22" r="5" fill="#16a34a"/>
  <path d="M19.5 22l1.5 1.5 3-3" stroke="white" stroke-width="1.5" stroke-linecap="round" stroke-linejoin="round" fill="none"/>
</svg>
